<?xml version="1.0" encoding="UTF-8" standalone="no"?>
<svg
   xmlns:dc="http://purl.org/dc/elements/1.1/"
   xmlns:cc="http://creativecommons.org/ns#"
   xmlns:rdf="http://www.w3.org/1999/02/22-rdf-syntax-ns#"
   xmlns:svg="http://www.w3.org/2000/svg"
   xmlns="http://www.w3.org/2000/svg"
   width="11in"
   height="8.5in"
   viewBox="0 0 279.4 215.9"
   version="1.1"
   id="svg8">
  <defs
     id="defs2" />
  <metadata
     id="metadata5">
    <rdf:RDF>
      <cc:Work
         rdf:about="">
        <dc:format>image/svg+xml</dc:format>
        <dc:type
           rdf:resource="http://purl.org/dc/dcmitype/StillImage" />
        <dc:title></dc:title>
      </cc:Work>
    </rdf:RDF>
  </metadata>
  <g
     id="layer1">
    <g
       id="g843"
       transform="matrix(0.09112111,0,0,-0.09112111,-15.089871,209.10077)">
      <path
         d="M 550.465,1181.5 V 580.309 H 968.727 V 508.801 H 2518.33 v 71.508 h 359.03 V 1181.5 H 550.465"
         style="fill:#16243a;fill-opacity:1;fill-rule:nonzero;stroke:none"
         id="path845" />
      <path
         d="M 550.465,1181.5 V 580.309 H 968.727 V 508.801 H 2518.33 v 71.508 h 359.03 V 1181.5 Z"
         style="fill:none;stroke:#f3a00f;stroke-width:9.20268;stroke-linecap:butt;stroke-linejoin:miter;stroke-miterlimit:4;stroke-dasharray:none;stroke-opacity:1"
         id="path847" />
      <path
         d="m 2650.32,1515.35 v 273.52 H 821.617 V 1578.55 H 550.465 V 1120.2 H 2877.36 v 395.15 h -227.04"
         style="fill:#f3a00f;fill-opacity:1;fill-rule:nonzero;stroke:none"
         id="path849" />
      <path
         d="m 2304.91,1001.54 c 7.86,38.82 12,78.97 12,120.1 0,0.65 -0.02,1.27 -0.02,1.9 H 1110.94 c 0,-0.63 -0.03,-1.25 -0.03,-1.9 0,-41.13 4.14,-81.28 12,-120.1 h 1182"
         style="fill:#1081c4;fill-opacity:1;fill-rule:nonzero;stroke:none"
         id="path851" />
      <path
         d="m 2304.91,1001.54 c 7.86,38.82 12,78.97 12,120.1 0,0.65 -0.02,1.27 -0.02,1.9 H 1110.94 c 0,-0.63 -0.03,-1.25 -0.03,-1.9 0,-41.13 4.14,-81.28 12,-120.1 z"
         style="fill:none;stroke:#f3a00f;stroke-width:8.65548;stroke-linecap:butt;stroke-linejoin:miter;stroke-miterlimit:4;stroke-dasharray:none;stroke-opacity:1"
         id="path853" />
      <path
         d="m 1348.43,642.07 c 101.4,-77.41 228.05,-123.41 365.48,-123.41 137.42,0 264.09,46 365.49,123.41 h -730.97"
         style="fill:#1081c4;fill-opacity:1;fill-rule:nonzero;stroke:none"
         id="path855" />
      <path
         d="m 1348.43,642.07 c 101.4,-77.41 228.05,-123.41 365.48,-123.41 137.42,0 264.09,46 365.49,123.41 z"
         style="fill:none;stroke:#f3a00f;stroke-width:8.65548;stroke-linecap:butt;stroke-linejoin:miter;stroke-miterlimit:4;stroke-dasharray:none;stroke-opacity:1"
         id="path857" />
      <path
         d="m 2197.7,761.73 c 27.57,37 51,77.27 69.59,120.122 H 1160.52 c 18.61,-42.852 42.04,-83.122 69.6,-120.122 h 967.58"
         style="fill:#1081c4;fill-opacity:1;fill-rule:nonzero;stroke:none"
         id="path859" />
      <path
         d="m 2197.7,761.73 c 27.57,37 51,77.27 69.59,120.122 H 1160.52 c 18.61,-42.852 42.04,-83.122 69.6,-120.122 z"
         style="fill:none;stroke:#f3a00f;stroke-width:8.65548;stroke-linecap:butt;stroke-linejoin:miter;stroke-miterlimit:4;stroke-dasharray:none;stroke-opacity:1"
         id="path861" />
      <path
         d="m 2305.37,1238.88 c -54.79,276.62 -298.75,485.19 -591.46,485.19 -292.71,0 -536.68,-208.57 -591.45,-485.19 h 1182.91"
         style="fill:#ffffff;fill-opacity:1;fill-rule:nonzero;stroke:none"
         id="path863" />
      <path
         d="M 1122.91,1001.54 H 2304.92"
         style="fill:#16243a;fill-opacity:1;fill-rule:nonzero;stroke:none"
         id="path865" />
      <path
         d="M 1122.91,1001.54 H 2304.92"
         style="fill:none;stroke:#f3a00f;stroke-width:8.65548;stroke-linecap:butt;stroke-linejoin:miter;stroke-miterlimit:4;stroke-dasharray:none;stroke-opacity:1"
         id="path867" />
      <path
         d="M 1160.52,881.852 H 2267.29"
         style="fill:#16243a;fill-opacity:1;fill-rule:nonzero;stroke:none"
         id="path869" />
      <path
         d="M 1160.52,881.852 H 2267.29"
         style="fill:none;stroke:#f3a00f;stroke-width:8.65548;stroke-linecap:butt;stroke-linejoin:miter;stroke-miterlimit:4;stroke-dasharray:none;stroke-opacity:1"
         id="path871" />
      <path
         d="M 1230.12,761.73 H 2197.7"
         style="fill:#13773d;fill-opacity:1;fill-rule:nonzero;stroke:none"
         id="path873" />
      <path
         d="M 1230.12,761.73 H 2197.7"
         style="fill:none;stroke:#f3a00f;stroke-width:8.65548;stroke-linecap:butt;stroke-linejoin:miter;stroke-miterlimit:4;stroke-dasharray:none;stroke-opacity:1"
         id="path875" />
      <path
         d="M 1348.43,642.07 H 2079.4"
         style="fill:#13773d;fill-opacity:1;fill-rule:nonzero;stroke:none"
         id="path877" />
      <path
         d="M 1348.43,642.07 H 2079.4"
         style="fill:none;stroke:#f3a00f;stroke-width:8.65548;stroke-linecap:butt;stroke-linejoin:miter;stroke-miterlimit:4;stroke-dasharray:none;stroke-opacity:1"
         id="path879" />
      <path
         d="M 518.715,1230.01 V 1001.67 H 2909.11 v 228.34 H 518.715"
         style="fill:#13773d;fill-opacity:1;fill-rule:nonzero;stroke:none"
         id="path881" />
      <path
         d="M 518.715,1230.01 V 1001.67 H 2909.11 v 228.34 z"
         style="fill:none;stroke:#f3a00f;stroke-width:13.9822;stroke-linecap:butt;stroke-linejoin:miter;stroke-miterlimit:4;stroke-dasharray:none;stroke-opacity:1"
         id="path883" />
      <path
         d="m 1716.02,505.82 c -643.99,0 -1166.059,274.43 -1166.059,612.96 0,338.54 522.069,612.97 1166.059,612.97 644.04,0 1166.09,-274.43 1166.09,-612.97 0,-338.53 -522.05,-612.96 -1166.09,-612.96 z m -2.12,1488.62 c -804.193,0 -1456.119,-392.03 -1456.119,-875.66 0,-483.632 651.926,-875.659 1456.119,-875.659 804.22,0 1456.14,392.027 1456.14,875.659 0,483.63 -651.92,875.66 -1456.14,875.66"
         style="fill:#ffffff;fill-opacity:1;fill-rule:nonzero;stroke:none"
         id="path885" />
      <path
         d="m 1716.02,505.82 c -643.99,0 -1166.059,274.43 -1166.059,612.96 0,338.54 522.069,612.97 1166.059,612.97 644.04,0 1166.09,-274.43 1166.09,-612.97 0,-338.53 -522.05,-612.96 -1166.09,-612.96 z m -2.12,1488.62 c -804.193,0 -1456.119,-392.03 -1456.119,-875.66 0,-483.632 651.926,-875.659 1456.119,-875.659 804.22,0 1456.14,392.027 1456.14,875.659 0,483.63 -651.92,875.66 -1456.14,875.66 z"
         style="fill:none;stroke:#f3a00f;stroke-width:28.8;stroke-linecap:butt;stroke-linejoin:miter;stroke-miterlimit:10;stroke-dasharray:none;stroke-opacity:1"
         id="path887" />
      <path
         d="m 3089.32,1106.54 c 0,-42.86 -34.72,-77.58 -77.57,-77.58 -42.84,0 -77.56,34.72 -77.56,77.58 0,42.84 34.72,77.57 77.56,77.57 42.85,0 77.57,-34.73 77.57,-77.57"
         style="fill:#f3a00f;fill-opacity:1;fill-rule:nonzero;stroke:none"
         id="path889" />
      <path
         d="m 3089.32,1106.54 c 0,-42.86 -34.72,-77.58 -77.57,-77.58 -42.84,0 -77.56,34.72 -77.56,77.58 0,42.84 34.72,77.57 77.56,77.57 42.85,0 77.57,-34.73 77.57,-77.57 z"
         style="fill:none;stroke:#f3a00f;stroke-width:1.54665;stroke-linecap:butt;stroke-linejoin:miter;stroke-miterlimit:4;stroke-dasharray:none;stroke-opacity:1"
         id="path891" />
      <path
         d="m 472.137,1106.54 c 0,-42.86 -34.719,-77.58 -77.567,-77.58 -42.836,0 -77.57,34.72 -77.57,77.58 0,42.84 34.734,77.57 77.57,77.57 42.848,0 77.567,-34.73 77.567,-77.57"
         style="fill:#f3a00f;fill-opacity:1;fill-rule:nonzero;stroke:none"
         id="path893" />
      <path
         d="m 472.137,1106.54 c 0,-42.86 -34.719,-77.58 -77.567,-77.58 -42.836,0 -77.57,34.72 -77.57,77.58 0,42.84 34.734,77.57 77.57,77.57 42.848,0 77.567,-34.73 77.567,-77.57 z"
         style="fill:none;stroke:#f3a00f;stroke-width:1.54665;stroke-linecap:butt;stroke-linejoin:miter;stroke-miterlimit:4;stroke-dasharray:none;stroke-opacity:1"
         id="path895" />
      <path
         d="m 2289,1146.43 v 20.46 c 9.46,0.42 16.09,1.05 19.88,1.9 6.04,1.33 10.94,4 14.73,8.01 2.58,2.74 4.55,6.4 5.89,10.97 0.77,2.74 1.15,4.78 1.15,6.12 h 25.1 v -152.93 h -30.79 v 105.47 H 2289"
         style="fill:#ffffff;fill-opacity:1;fill-rule:nonzero;stroke:none"
         id="path897" />
      <path
         d="m 2289,1146.43 v 20.46 c 9.46,0.42 16.09,1.05 19.88,1.9 6.04,1.33 10.94,4 14.73,8.01 2.58,2.74 4.55,6.4 5.89,10.97 0.77,2.74 1.15,4.78 1.15,6.12 h 25.1 v -152.93 h -30.79 v 105.47 z"
         style="fill:none;stroke:#f3a00f;stroke-width:2.5;stroke-linecap:butt;stroke-linejoin:miter;stroke-miterlimit:10;stroke-dasharray:none;stroke-opacity:1"
         id="path899" />
      <path
         d="m 2458.13,1119.21 c 6.82,4.36 10.24,11.92 10.24,22.67 0,8.65 -2.03,15.51 -6.07,20.58 -4.05,5.06 -9.59,7.59 -16.62,7.59 -5.13,0 -9.52,-1.45 -13.17,-4.33 -5.77,-4.5 -8.65,-12.12 -8.65,-22.88 0,-9.07 1.84,-15.88 5.54,-20.41 3.68,-4.54 9.36,-6.8 17.03,-6.8 4.15,0 8.04,1.19 11.7,3.58 z m -50.57,60.7 c 9.45,10.15 21.74,15.24 36.86,15.24 23.27,0 39.23,-10.31 47.88,-30.91 4.92,-11.67 7.38,-27.03 7.38,-46.08 0,-18.49 -2.35,-33.93 -7.06,-46.31 -9,-23.55 -25.52,-35.32 -49.57,-35.32 -11.46,0 -21.77,3.39 -30.91,10.18 -9.14,6.78 -14.37,16.68 -15.7,29.68 h 29.95 c 0.7,-4.5 2.6,-8.15 5.69,-10.96 3.1,-2.82 7.2,-4.22 12.34,-4.22 9.91,0 16.87,5.48 20.88,16.45 2.18,6.05 3.56,14.86 4.12,26.47 -2.74,-3.45 -5.67,-6.08 -8.76,-7.91 -5.63,-3.37 -12.54,-5.06 -20.77,-5.06 -12.16,0 -22.96,4.19 -32.39,12.6 -9.42,8.4 -14.13,20.52 -14.13,36.34 0,16.38 4.73,29.64 14.19,39.81"
         style="fill:#ffffff;fill-opacity:1;fill-rule:nonzero;stroke:none"
         id="path901" />
      <path
         d="m 2458.13,1119.21 c 6.82,4.36 10.24,11.92 10.24,22.67 0,8.65 -2.03,15.51 -6.07,20.58 -4.05,5.06 -9.59,7.59 -16.62,7.59 -5.13,0 -9.52,-1.45 -13.17,-4.33 -5.77,-4.5 -8.65,-12.12 -8.65,-22.88 0,-9.07 1.84,-15.88 5.54,-20.41 3.68,-4.54 9.36,-6.8 17.03,-6.8 4.15,0 8.04,1.19 11.7,3.58 z m -50.57,60.7 c 9.45,10.15 21.74,15.24 36.86,15.24 23.27,0 39.23,-10.31 47.88,-30.91 4.92,-11.67 7.38,-27.03 7.38,-46.08 0,-18.49 -2.35,-33.93 -7.06,-46.31 -9,-23.55 -25.52,-35.32 -49.57,-35.32 -11.46,0 -21.77,3.39 -30.91,10.18 -9.14,6.78 -14.37,16.68 -15.7,29.68 h 29.95 c 0.7,-4.5 2.6,-8.15 5.69,-10.96 3.1,-2.82 7.2,-4.22 12.34,-4.22 9.91,0 16.87,5.48 20.88,16.45 2.18,6.05 3.56,14.86 4.12,26.47 -2.74,-3.45 -5.67,-6.08 -8.76,-7.91 -5.63,-3.37 -12.54,-5.06 -20.77,-5.06 -12.16,0 -22.96,4.19 -32.39,12.6 -9.42,8.4 -14.13,20.52 -14.13,36.34 0,16.38 4.73,29.64 14.19,39.81 z"
         style="fill:none;stroke:#f3a00f;stroke-width:2.5;stroke-linecap:butt;stroke-linejoin:miter;stroke-miterlimit:10;stroke-dasharray:none;stroke-opacity:1"
         id="path903" />
      <path
         d="m 2535.3,1071.01 c 4.29,10.19 14.42,20.99 30.38,32.38 13.85,9.92 22.81,17.02 26.89,21.31 6.25,6.68 9.39,13.99 9.39,21.94 0,6.47 -1.8,11.84 -5.39,16.13 -3.58,4.28 -8.72,6.44 -15.39,6.44 -9.15,0 -15.36,-3.42 -18.67,-10.24 -1.89,-3.94 -3.02,-10.2 -3.37,-18.77 h -29.22 c 0.49,13 2.85,23.52 7.07,31.54 8.03,15.26 22.28,22.88 42.76,22.88 16.19,0 29.07,-4.48 38.65,-13.45 9.56,-8.96 14.36,-20.82 14.36,-35.59 0,-11.32 -3.39,-21.37 -10.16,-30.16 -4.43,-5.84 -11.72,-12.35 -21.86,-19.52 l -12.06,-8.54 c -7.53,-5.34 -12.69,-9.21 -15.46,-11.6 -2.79,-2.39 -5.12,-5.17 -7.02,-8.34 h 66.77 v -26.46 h -104.74 c 0.28,10.97 2.64,20.98 7.07,30.05"
         style="fill:#ffffff;fill-opacity:1;fill-rule:nonzero;stroke:none"
         id="path905" />
      <path
         d="m 2535.3,1071.01 c 4.29,10.19 14.42,20.99 30.38,32.38 13.85,9.92 22.81,17.02 26.89,21.31 6.25,6.68 9.39,13.99 9.39,21.94 0,6.47 -1.8,11.84 -5.39,16.13 -3.58,4.28 -8.72,6.44 -15.39,6.44 -9.15,0 -15.36,-3.42 -18.67,-10.24 -1.89,-3.94 -3.02,-10.2 -3.37,-18.77 h -29.22 c 0.49,13 2.85,23.52 7.07,31.54 8.03,15.26 22.28,22.88 42.76,22.88 16.19,0 29.07,-4.48 38.65,-13.45 9.56,-8.96 14.36,-20.82 14.36,-35.59 0,-11.32 -3.39,-21.37 -10.16,-30.16 -4.43,-5.84 -11.72,-12.35 -21.86,-19.52 l -12.06,-8.54 c -7.53,-5.34 -12.69,-9.21 -15.46,-11.6 -2.79,-2.39 -5.12,-5.17 -7.02,-8.34 h 66.77 v -26.46 h -104.74 c 0.28,10.97 2.64,20.98 7.07,30.05 z"
         style="fill:none;stroke:#f3a00f;stroke-width:2.5;stroke-linecap:butt;stroke-linejoin:miter;stroke-miterlimit:10;stroke-dasharray:none;stroke-opacity:1"
         id="path907" />
      <path
         d="m 2697.8,1075.61 c 2.88,-9.33 8.78,-13.98 17.71,-13.98 8.93,0 14.78,4.65 17.57,13.98 2.77,9.31 4.16,22.75 4.16,40.33 0,18.42 -1.39,32.06 -4.16,40.92 -2.79,8.86 -8.64,13.29 -17.57,13.29 -8.93,0 -14.83,-4.43 -17.71,-13.29 -2.89,-8.86 -4.34,-22.5 -4.34,-40.92 0,-17.58 1.45,-31.02 4.34,-40.33 z m 58.69,98.76 c 7.84,-13.71 11.76,-33.19 11.76,-58.43 0,-25.24 -3.92,-44.68 -11.76,-58.32 -7.84,-13.64 -21.5,-20.46 -40.98,-20.46 -19.47,0 -33.14,6.82 -40.97,20.46 -7.85,13.64 -11.76,33.08 -11.76,58.32 0,25.24 3.91,44.72 11.76,58.43 7.83,13.71 21.5,20.57 40.97,20.57 19.48,0 33.14,-6.86 40.98,-20.57"
         style="fill:#ffffff;fill-opacity:1;fill-rule:nonzero;stroke:none"
         id="path909" />
      <path
         d="m 2697.8,1075.61 c 2.88,-9.33 8.78,-13.98 17.71,-13.98 8.93,0 14.78,4.65 17.57,13.98 2.77,9.31 4.16,22.75 4.16,40.33 0,18.42 -1.39,32.06 -4.16,40.92 -2.79,8.86 -8.64,13.29 -17.57,13.29 -8.93,0 -14.83,-4.43 -17.71,-13.29 -2.89,-8.86 -4.34,-22.5 -4.34,-40.92 0,-17.58 1.45,-31.02 4.34,-40.33 z m 58.69,98.76 c 7.84,-13.71 11.76,-33.19 11.76,-58.43 0,-25.24 -3.92,-44.68 -11.76,-58.32 -7.84,-13.64 -21.5,-20.46 -40.98,-20.46 -19.47,0 -33.14,6.82 -40.97,20.46 -7.85,13.64 -11.76,33.08 -11.76,58.32 0,25.24 3.91,44.72 11.76,58.43 7.83,13.71 21.5,20.57 40.97,20.57 19.48,0 33.14,-6.86 40.98,-20.57 z"
         style="fill:none;stroke:#f3a00f;stroke-width:2.5;stroke-linecap:butt;stroke-linejoin:miter;stroke-miterlimit:10;stroke-dasharray:none;stroke-opacity:1"
         id="path911" />
      <path
         d="m 2024.69,1427.18 c -1.22,-168.61 -141.85,-304.39 -314.22,-303.11 -172.23,1.37 -310.95,139.31 -309.72,307.94 1.21,168.72 141.92,304.31 314.13,302.98 172.37,-1.33 311.02,-139.08 309.81,-307.81"
         style="fill:#f3a00f;fill-opacity:1;fill-rule:nonzero;stroke:none"
         id="path913" />
      <path
         d="m 1965.63,1609.4 c 0.73,0.15 1.25,0.29 1.72,0.49 -2.12,2.76 -4.17,5.61 -6.34,8.44 l -0.02,-0.8 0.02,0.8 c -55.13,67.36 -140.16,112.03 -236.99,115.28 -1.83,0.07 -3.64,0.03 -5.47,0.07 3.7,-0.16 7.33,-0.46 11.01,-0.82 92.13,-6.54 163.73,-57.8 161.67,-117.51 -2.16,-62.05 -82.65,-109.7 -179.93,-106.6 -97.27,3.16 -174.35,56.04 -172.23,118.08 1.94,53.63 62.45,96.61 141.81,105.24 -85.99,-8.46 -162,-49.95 -213.06,-111.26 -7.58,-16.98 -12.28,-34.81 -13.01,-53.52 -3.49,-104.28 110.03,-192.72 253.39,-197.31 143.47,-4.57 262.72,76.24 266.33,180.47 0.73,20.36 -3.33,40.18 -10.98,58.68 -0.77,0.03 -1.67,-0.06 -2.63,-0.05 0.96,-0.01 1.86,0.08 2.63,0.05 -1.38,3.52 -2.86,7.01 -4.56,10.44 l 6.64,-10.17"
         style="fill:#231f20;fill-opacity:1;fill-rule:nonzero;stroke:none"
         id="path915" />
      <path
         d="m 1965.63,1609.4 c 0.73,0.15 1.25,0.29 1.72,0.49 -2.12,2.76 -4.17,5.61 -6.34,8.44 l -0.02,-0.8 0.02,0.8 c -55.13,67.36 -140.16,112.03 -236.99,115.28 -1.83,0.07 -3.64,0.03 -5.47,0.07 3.7,-0.16 7.33,-0.46 11.01,-0.82 92.13,-6.54 163.73,-57.8 161.67,-117.51 -2.16,-62.05 -82.65,-109.7 -179.93,-106.6 -97.27,3.16 -174.35,56.04 -172.23,118.08 1.94,53.63 62.45,96.61 141.81,105.24 -85.99,-8.46 -162,-49.95 -213.06,-111.26 -7.58,-16.98 -12.28,-34.81 -13.01,-53.52 -3.49,-104.28 110.03,-192.72 253.39,-197.31 143.47,-4.57 262.72,76.24 266.33,180.47 0.73,20.36 -3.33,40.18 -10.98,58.68 -0.77,0.03 -1.67,-0.06 -2.63,-0.05 0.96,-0.01 1.86,0.08 2.63,0.05 -1.38,3.52 -2.86,7.01 -4.56,10.44 z"
         style="fill:none;stroke:#f3a00f;stroke-width:4.46111;stroke-linecap:butt;stroke-linejoin:miter;stroke-miterlimit:4;stroke-dasharray:none;stroke-opacity:1"
         id="path917" />
      <path
         d="m 1984.25,1449.86 c -6.01,-2.72 -13.49,1.21 -16.57,8.58 -3.33,7.38 -0.97,15.54 5.14,18.06 5.95,2.52 13.36,-1.1 16.67,-8.5 3.15,-7.44 0.9,-15.49 -5.24,-18.14 z m -26.79,-48.24 c -7.65,-1.66 -15.14,4.58 -17.13,13.73 -1.94,9.22 2.76,17.85 10.23,19.43 7.51,1.56 15.2,-4.52 17.05,-13.78 1.79,-9.19 -2.8,-17.92 -10.15,-19.38 z m -37.47,-40.87 c -8.51,-0.89 -16.26,6.67 -17.42,16.82 -1.13,10.31 4.67,19.62 13.2,20.61 8.21,1.04 16.15,-6.49 17.29,-16.93 1.24,-10.42 -4.61,-19.66 -13.07,-20.5 z m -54.17,-33.62 c -10.4,0.32 -18.58,9.11 -18.05,19.49 0.29,10.43 8.88,18.53 19.34,18.18 10.41,-0.19 18.5,-8.89 18.08,-19.34 -0.38,-10.32 -9,-18.54 -19.37,-18.33 z m -56.79,-22.09 c -10.39,0.5 -18.48,9.15 -18.06,19.57 0.33,10.5 8.92,18.49 19.38,18.2 10.3,-0.38 18.37,-9.17 18.03,-19.37 -0.36,-10.4 -9.04,-18.62 -19.35,-18.4 z m -59.58,-10.02 c -10.17,0.47 -18.52,9.03 -18.04,19.62 0.32,10.28 9.07,18.43 19.42,17.96 10.28,-0.22 18.56,-8.81 18.12,-19.23 -0.39,-10.39 -9.12,-18.66 -19.5,-18.35 z m -66.04,-0.05 c -10.48,0.24 -18.42,8.97 -18.07,19.29 0.23,10.41 8.97,18.62 19.38,18.2 10.31,-0.21 18.42,-8.84 18.15,-19.39 -0.4,-10.4 -9.12,-18.51 -19.46,-18.1 z m -45.1,27.56 c -1.52,-6.29 -6.02,-11.04 -11.74,-13.21 v 0 c -1.18,-0.39 -2.26,-0.7 -3.36,-0.93 -0.14,0.02 -0.14,-0.08 -0.14,-0.08 -1.23,-0.15 -2.42,-0.19 -3.56,-0.25 -0.08,0 -0.08,0 -0.08,0 -1.27,0.04 -2.52,0.18 -3.77,0.44 -10.1,2.55 -16.37,12.48 -14.05,22.69 0.18,0.94 0.56,1.76 0.9,2.65 0.08,0.23 0.07,0.39 0.13,0.59 0.38,0.67 0.75,1.25 1.11,1.95 0.21,0.33 0.33,0.71 0.54,1.05 0.51,0.55 0.99,1.09 1.37,1.61 0.35,0.39 0.6,0.69 0.8,1.03 0.58,0.45 1.1,0.88 1.58,1.31 0.42,0.39 0.75,0.6 1.18,0.84 0.49,0.41 1.02,0.74 1.57,1.05 0.47,0.24 0.97,0.47 1.39,0.66 0.58,0.25 1.06,0.52 1.69,0.69 0.51,0.2 1.1,0.4 1.76,0.48 0.51,0.18 0.89,0.39 1.52,0.49 0.8,-0.03 1.71,0.11 2.78,0.09 0.19,0 0.4,0.11 0.69,0.08 v 0 c 1.28,-0.1 2.49,-0.24 3.81,-0.52 10.11,-2.33 16.33,-12.54 13.88,-22.71 z m -54.11,21.52 c -2.38,-10.21 -12.56,-16.6 -22.68,-14.36 -10.14,2.51 -16.29,12.72 -13.88,22.89 2.39,9.94 12.4,16.34 22.47,13.91 10.21,-2.34 16.38,-12.46 14.09,-22.44 z m -48.9,30.27 c -2.39,-10.1 -12.51,-16.28 -22.68,-14 -10.08,2.22 -16.4,12.54 -13.98,22.52 2.56,10.21 12.6,16.58 22.77,14.21 9.97,-2.43 16.24,-12.6 13.89,-22.73 z m -43.36,39.72 c -3.53,-8.69 -12.15,-13.47 -19.16,-10.52 -7.17,2.77 -9.98,12.11 -6.45,20.89 3.51,8.69 11.89,13.49 19.02,10.49 7.19,-2.69 10.13,-12.19 6.59,-20.86 z m -29.07,50.2 c -3.5,-7.19 -11.24,-10.57 -17.14,-7.61 -5.81,2.98 -7.58,11.22 -3.97,18.28 3.57,7.19 11.38,10.67 17.21,7.56 5.91,-2.76 7.68,-11.16 3.9,-18.23 z m 466.75,186.85 c 10.82,-10.58 20.96,-21.77 30.1,-33.67 10.69,-22.78 16.26,-47.3 15.39,-72.76 -3.88,-109.86 -123.36,-195.17 -266.87,-190.83 -143.36,4.73 -256.61,97.55 -252.82,207.26 0.85,21.86 6.2,42.59 15.35,62.05 -12.94,-15.88 -24.54,-32.97 -34.34,-51.09 -5.78,-16.79 -8.93,-34.34 -9.7,-52.56 -4.36,-124.67 121.1,-229.94 280.28,-234.99 159.11,-4.99 291.67,92.23 296.05,216.71 0.76,20.59 -2.19,40.52 -7.86,59.65 -16.29,33.84 -38.66,64.29 -65.58,90.23"
         style="fill:#231f20;fill-opacity:1;fill-rule:nonzero;stroke:none"
         id="path919" />
      <path
         d="m 2001.91,1542.32 -3.57,0.02 c 3.23,-14.28 4.78,-29.08 4.23,-44.23 -4.08,-120.98 -136.43,-215 -295.53,-209.67 -159.18,5.12 -284.83,107.67 -280.75,228.65 0.41,10.18 1.76,20.05 3.83,29.67 l -2.86,-0.02 c -15.71,-34.54 -25.11,-72.56 -26.42,-112.79 -5.77,-167.9 129.81,-308.62 302.64,-314.31 172.9,-5.69 317.74,125.84 323.33,293.59 1.61,45.82 -7.61,89.68 -24.9,129.09"
         style="fill:#231f20;fill-opacity:1;fill-rule:nonzero;stroke:none"
         id="path921" />
      <path
         d="m 2001.91,1542.32 -3.57,0.02 c 3.23,-14.28 4.78,-29.08 4.23,-44.23 -4.08,-120.98 -136.43,-215 -295.53,-209.67 -159.18,5.12 -284.83,107.67 -280.75,228.65 0.41,10.18 1.76,20.05 3.83,29.67 l -2.86,-0.02 c -15.71,-34.54 -25.11,-72.56 -26.42,-112.79 -5.77,-167.9 129.81,-308.62 302.64,-314.31 172.9,-5.69 317.74,125.84 323.33,293.59 1.61,45.82 -7.61,89.68 -24.9,129.09 z"
         style="fill:none;stroke:#231f20;stroke-width:5.24995;stroke-linecap:butt;stroke-linejoin:miter;stroke-miterlimit:4;stroke-dasharray:none;stroke-opacity:1"
         id="path923" />
      <path
         d="m 1743.09,1739.93 c 54,-9.3 94.09,-43.3 93.81,-83.7 -0.33,-47.04 -55.54,-84.75 -123.17,-84.25 -67.66,0.54 -122.23,39.07 -121.89,86.11 0.3,40.46 40.9,73.8 95.03,82.25 -82.81,-8.39 -146.29,-55.93 -146.71,-113.93 -0.48,-64.38 77.09,-117.24 173.09,-117.98 96.03,-0.73 174.4,50.94 174.87,115.28 0.41,58.01 -62.45,106.53 -145.03,116.22"
         style="fill:#f3a00f;fill-opacity:1;fill-rule:nonzero;stroke:none"
         id="path925" />
      <path
         d="m 1743.09,1739.93 c 54,-9.3 94.09,-43.3 93.81,-83.7 -0.33,-47.04 -55.54,-84.75 -123.17,-84.25 -67.66,0.54 -122.23,39.07 -121.89,86.11 0.3,40.46 40.9,73.8 95.03,82.25 -82.81,-8.39 -146.29,-55.93 -146.71,-113.93 -0.48,-64.38 77.09,-117.24 173.09,-117.98 96.03,-0.73 174.4,50.94 174.87,115.28 0.41,58.01 -62.45,106.53 -145.03,116.22 z"
         style="fill:none;stroke:#f3a00f;stroke-width:4.54172;stroke-linecap:butt;stroke-linejoin:miter;stroke-miterlimit:4;stroke-dasharray:none;stroke-opacity:1"
         id="path927" />
      <path
         d="m 1691.05,1115.39 c -172.41,12.71 -301.87,162.8 -289.13,335.22 12.73,172.42 162.82,301.88 335.25,289.14 172.41,-12.73 301.87,-162.82 289.13,-335.24 -12.72,-172.42 -162.81,-301.86 -335.25,-289.12 z"
         style="fill:none;stroke:#f3a00f;stroke-width:6.24118;stroke-linecap:butt;stroke-linejoin:miter;stroke-miterlimit:4;stroke-dasharray:none;stroke-opacity:1"
         id="path929" />
      <path
         d="m 1713.98,1631.08 c -33.9,1.18 -60.86,20.98 -59.93,44.18 0.93,23.37 28.99,41.44 63.1,40.46 33.8,-1.13 60.73,-20.86 59.79,-44.13 -0.82,-23.34 -28.86,-41.47 -62.96,-40.51 z m 4.04,110.72 c -64.72,2.11 -118.35,-32.42 -119.97,-76.88 -1.62,-44.52 49.56,-81.98 114.23,-84.05 64.66,-1.91 118.42,32.32 119.95,77.01 1.68,44.28 -49.59,81.92 -114.21,83.92"
         style="fill:#231f20;fill-opacity:1;fill-rule:nonzero;stroke:none"
         id="path931" />
      <path
         d="m 1853.11,1139.5 c 0,-80.41 -62.88,-145.551 -140.39,-145.551 -77.54,0 -140.38,65.141 -140.38,145.551 0,80.4 62.84,145.59 140.38,145.59 77.51,0 140.39,-65.19 140.39,-145.59"
         style="fill:#ffffff;fill-opacity:1;fill-rule:nonzero;stroke:none"
         id="path933" />
      <path
         d="m 1853.11,1139.5 c 0,-80.41 -62.88,-145.551 -140.39,-145.551 -77.54,0 -140.38,65.141 -140.38,145.551 0,80.4 62.84,145.59 140.38,145.59 77.51,0 140.39,-65.19 140.39,-145.59 z"
         style="fill:none;stroke:#f3a00f;stroke-width:4.7682;stroke-linecap:butt;stroke-linejoin:miter;stroke-miterlimit:4;stroke-dasharray:none;stroke-opacity:1"
         id="path935" />
      <g
         id="g937"
         transform="scale(10)">
        <text
           transform="matrix(0.63459925,-0.77595598,-0.77129686,-0.63078706,40.0816,81.693)"
           style="font-variant:normal;font-weight:bold;font-size:23.8461px;font-family:Helvetica;-inkscape-font-specification:Helvetica-Bold;writing-mode:lr-tb;fill:#231f20;fill-opacity:1;fill-rule:nonzero;stroke:#f9a72b;stroke-width:0.36;stroke-linecap:butt;stroke-linejoin:miter;stroke-miterlimit:4;stroke-dasharray:none;stroke-opacity:1"
           id="text941"><tspan
             x="0"
             y="0"
             id="tspan939">L</tspan></text>
      </g>
      <g
         id="g943"
         transform="scale(10)">
        <text
           transform="matrix(0.77692637,-0.63339465,-0.62959146,-0.77226331,50.8004,68.859)"
           style="font-variant:normal;font-weight:bold;font-size:23.8463px;font-family:Helvetica;-inkscape-font-specification:Helvetica-Bold;writing-mode:lr-tb;fill:#231f20;fill-opacity:1;fill-rule:nonzero;stroke:#f9a72b;stroke-width:0.36;stroke-linecap:butt;stroke-linejoin:miter;stroke-miterlimit:4;stroke-dasharray:none;stroke-opacity:1"
           id="text947"><tspan
             x="0"
             y="0"
             id="tspan945">A</tspan></text>
      </g>
      <g
         id="g949"
         transform="scale(10)">
        <text
           transform="matrix(0.87235004,-0.49183524,-0.48888179,-0.86711306,64.6418,57.4621)"
           style="font-variant:normal;font-weight:bold;font-size:23.869px;font-family:Helvetica;-inkscape-font-specification:Helvetica-Bold;writing-mode:lr-tb;fill:#231f20;fill-opacity:1;fill-rule:nonzero;stroke:#f9a72b;stroke-width:0.36;stroke-linecap:butt;stroke-linejoin:miter;stroke-miterlimit:4;stroke-dasharray:none;stroke-opacity:1"
           id="text953"><tspan
             x="0"
             y="0"
             id="tspan951">W</tspan></text>
      </g>
      <g
         id="g955"
         transform="scale(10)">
        <text
           transform="matrix(0.93201503,-0.36460915,-0.36241962,-0.92642233,86.0559,45.8129)"
           style="font-variant:normal;font-weight:bold;font-size:23.8845px;font-family:Helvetica;-inkscape-font-specification:Helvetica-Bold;writing-mode:lr-tb;fill:#231f20;fill-opacity:1;fill-rule:nonzero;stroke:#f9a72b;stroke-width:0.36;stroke-linecap:butt;stroke-linejoin:miter;stroke-miterlimit:4;stroke-dasharray:none;stroke-opacity:1"
           id="text959"><tspan
             x="0"
             y="0"
             id="tspan957">N</tspan></text>
      </g>
      <g
         id="g961"
         transform="scale(10)">
        <text
           transform="matrix(0.97384199,-0.22859939,-0.22722625,-0.96799151,111.355,36.7129)"
           style="font-variant:normal;font-weight:bold;font-size:23.8961px;font-family:Helvetica;-inkscape-font-specification:Helvetica-Bold;writing-mode:lr-tb;fill:#231f20;fill-opacity:1;fill-rule:nonzero;stroke:#f9a72b;stroke-width:0.36;stroke-linecap:butt;stroke-linejoin:miter;stroke-miterlimit:4;stroke-dasharray:none;stroke-opacity:1"
           id="text965"><tspan
             x="0"
             y="0"
             id="tspan963">B</tspan></text>
      </g>
      <g
         id="g967"
         transform="scale(10)">
        <text
           transform="matrix(0.99036888,-0.13929096,-0.13845391,-0.9844231,129.724,32.457)"
           style="font-variant:normal;font-weight:bold;font-size:23.9007px;font-family:Helvetica;-inkscape-font-specification:Helvetica-Bold;writing-mode:lr-tb;fill:#231f20;fill-opacity:1;fill-rule:nonzero;stroke:#f9a72b;stroke-width:0.36;stroke-linecap:butt;stroke-linejoin:miter;stroke-miterlimit:4;stroke-dasharray:none;stroke-opacity:1"
           id="text971"><tspan
             x="0"
             y="0"
             id="tspan969">O</tspan></text>
      </g>
      <g
         id="g973"
         transform="scale(10)">
        <text
           transform="matrix(0.99905892,-0.04363552,-0.0433736,-0.99306206,149.75,29.6352)"
           style="font-variant:normal;font-weight:bold;font-size:23.9032px;font-family:Helvetica;-inkscape-font-specification:Helvetica-Bold;writing-mode:lr-tb;fill:#231f20;fill-opacity:1;fill-rule:nonzero;stroke:#f9a72b;stroke-width:0.36;stroke-linecap:butt;stroke-linejoin:miter;stroke-miterlimit:4;stroke-dasharray:none;stroke-opacity:1"
           id="text977"><tspan
             x="0"
             y="0"
             id="tspan975">W</tspan></text>
      </g>
      <g
         id="g979"
         transform="scale(10)">
        <text
           transform="matrix(0.99920652,0.04006935,0.0398287,-0.99320967,173.818,28.8141)"
           style="font-variant:normal;font-weight:bold;font-size:23.9032px;font-family:Helvetica;-inkscape-font-specification:Helvetica-Bold;writing-mode:lr-tb;fill:#231f20;fill-opacity:1;fill-rule:nonzero;stroke:#f9a72b;stroke-width:0.36;stroke-linecap:butt;stroke-linejoin:miter;stroke-miterlimit:4;stroke-dasharray:none;stroke-opacity:1"
           id="text983"><tspan
             x="0"
             y="0"
             id="tspan981">L</tspan></text>
      </g>
      <g
         id="g985"
         transform="scale(10)">
        <text
           transform="matrix(0.99587517,0.09128157,0.09073395,-0.98989598,189.828,29.5941)"
           style="font-variant:normal;font-weight:bold;font-size:23.9023px;font-family:Helvetica;-inkscape-font-specification:Helvetica-Bold;writing-mode:lr-tb;fill:#231f20;fill-opacity:1;fill-rule:nonzero;stroke:#f9a72b;stroke-width:0.36;stroke-linecap:butt;stroke-linejoin:miter;stroke-miterlimit:4;stroke-dasharray:none;stroke-opacity:1"
           id="text989"><tspan
             x="0"
             y="0"
             id="tspan987">I</tspan></text>
      </g>
      <g
         id="g991"
         transform="scale(10)">
        <text
           transform="matrix(0.98882369,0.14999026,0.14908958,-0.98288576,197.897,30.216)"
           style="font-variant:normal;font-weight:bold;font-size:23.9003px;font-family:Helvetica;-inkscape-font-specification:Helvetica-Bold;writing-mode:lr-tb;fill:#231f20;fill-opacity:1;fill-rule:nonzero;stroke:#f9a72b;stroke-width:0.36;stroke-linecap:butt;stroke-linejoin:miter;stroke-miterlimit:4;stroke-dasharray:none;stroke-opacity:1"
           id="text995"><tspan
             x="0"
             y="0"
             id="tspan993">N</tspan></text>
      </g>
      <g
         id="g997"
         transform="scale(10)">
        <text
           transform="matrix(0.97111724,0.24004363,0.23860283,-0.96528842,216.532,33.0719)"
           style="font-variant:normal;font-weight:bold;font-size:23.8952px;font-family:Helvetica;-inkscape-font-specification:Helvetica-Bold;writing-mode:lr-tb;fill:#231f20;fill-opacity:1;fill-rule:nonzero;stroke:#f9a72b;stroke-width:0.36;stroke-linecap:butt;stroke-linejoin:miter;stroke-miterlimit:4;stroke-dasharray:none;stroke-opacity:1"
           id="text1001"><tspan
             x="0"
             y="0"
             id="tspan999">G</tspan></text>
      </g>
      <g
         id="g1003"
         transform="scale(10)">
        <text
           transform="matrix(0.92521485,0.38173482,0.37944364,-0.91966251,243.802,40.5391)"
           style="font-variant:normal;font-weight:bold;font-size:23.8826px;font-family:Helvetica;-inkscape-font-specification:Helvetica-Bold;writing-mode:lr-tb;fill:#231f20;fill-opacity:1;fill-rule:nonzero;stroke:#f9a72b;stroke-width:0.36;stroke-linecap:butt;stroke-linejoin:miter;stroke-miterlimit:4;stroke-dasharray:none;stroke-opacity:1"
           id="text1007"><tspan
             x="0"
             y="0"
             id="tspan1005">C</tspan></text>
      </g>
      <g
         id="g1009"
         transform="scale(10)">
        <text
           transform="matrix(0.87582007,0.48555328,0.48263776,-0.87056238,261.26,47.8969)"
           style="font-variant:normal;font-weight:bold;font-size:23.8698px;font-family:Helvetica;-inkscape-font-specification:Helvetica-Bold;writing-mode:lr-tb;fill:#231f20;fill-opacity:1;fill-rule:nonzero;stroke:#f9a72b;stroke-width:0.36;stroke-linecap:butt;stroke-linejoin:miter;stroke-miterlimit:4;stroke-dasharray:none;stroke-opacity:1"
           id="text1013"><tspan
             x="0"
             y="0"
             id="tspan1011">L</tspan></text>
      </g>
      <g
         id="g1015"
         transform="scale(10)">
        <text
           transform="matrix(0.79847123,0.60566802,0.60203297,-0.79367961,275.661,55.8672)"
           style="font-variant:normal;font-weight:bold;font-size:23.8512px;font-family:Helvetica;-inkscape-font-specification:Helvetica-Bold;writing-mode:lr-tb;fill:#231f20;fill-opacity:1;fill-rule:nonzero;stroke:#f9a72b;stroke-width:0.36;stroke-linecap:butt;stroke-linejoin:miter;stroke-miterlimit:4;stroke-dasharray:none;stroke-opacity:1"
           id="text1019"><tspan
             x="0"
             y="0"
             id="tspan1017">U</tspan></text>
      </g>
      <g
         id="g1021"
         transform="scale(10)">
        <text
           transform="matrix(0.65853484,0.75598977,0.75145138,-0.65458343,291.032,67.666)"
           style="font-variant:normal;font-weight:bold;font-size:23.8417px;font-family:Helvetica;-inkscape-font-specification:Helvetica-Bold;writing-mode:lr-tb;fill:#231f20;fill-opacity:1;fill-rule:nonzero;stroke:#f9a72b;stroke-width:0.36;stroke-linecap:butt;stroke-linejoin:miter;stroke-miterlimit:4;stroke-dasharray:none;stroke-opacity:1"
           id="text1025"><tspan
             x="0"
             y="0"
             id="tspan1023">B</tspan></text>
      </g>
      <g
         id="g1027"
         transform="scale(10)">
        <text
           transform="matrix(0.94167421,0.33925923,0.3365259,-0.93408481,93.648,163.606)"
           style="font-variant:normal;font-weight:bold;font-size:23.9309px;font-family:Helvetica;-inkscape-font-specification:Helvetica-Bold;writing-mode:lr-tb;fill:#231f20;fill-opacity:1;fill-rule:nonzero;stroke:#f9a72b;stroke-width:0.36;stroke-linecap:butt;stroke-linejoin:miter;stroke-miterlimit:4;stroke-dasharray:none;stroke-opacity:1"
           id="text1031"><tspan
             x="0"
             y="0"
             id="tspan1029">M</tspan></text>
      </g>
      <g
         id="g1033"
         transform="scale(10)">
        <text
           transform="matrix(0.96831667,0.25175308,0.24972551,-0.96051898,114.735,170.752)"
           style="font-variant:normal;font-weight:bold;font-size:23.9407px;font-family:Helvetica;-inkscape-font-specification:Helvetica-Bold;writing-mode:lr-tb;fill:#231f20;fill-opacity:1;fill-rule:nonzero;stroke:#f9a72b;stroke-width:0.36;stroke-linecap:butt;stroke-linejoin:miter;stroke-miterlimit:4;stroke-dasharray:none;stroke-opacity:1"
           id="text1037"><tspan
             x="0"
             y="0"
             id="tspan1035">I</tspan></text>
      </g>
      <g
         id="g1039"
         transform="scale(10)">
        <text
           transform="matrix(0.98358304,0.18192158,0.18045608,-0.97566124,123.935,173.179)"
           style="font-variant:normal;font-weight:bold;font-size:23.9466px;font-family:Helvetica;-inkscape-font-specification:Helvetica-Bold;writing-mode:lr-tb;fill:#231f20;fill-opacity:1;fill-rule:nonzero;stroke:#f9a72b;stroke-width:0.36;stroke-linecap:butt;stroke-linejoin:miter;stroke-miterlimit:4;stroke-dasharray:none;stroke-opacity:1"
           id="text1043"><tspan
             x="0"
             y="0"
             id="tspan1041">L</tspan></text>
      </g>
      <g
         id="g1045"
         transform="scale(10)">
        <text
           transform="matrix(0.99624289,0.08730614,0.08660311,-0.98821954,139.205,176.139)"
           style="font-variant:normal;font-weight:bold;font-size:23.9514px;font-family:Helvetica;-inkscape-font-specification:Helvetica-Bold;writing-mode:lr-tb;fill:#231f20;fill-opacity:1;fill-rule:nonzero;stroke:#f9a72b;stroke-width:0.36;stroke-linecap:butt;stroke-linejoin:miter;stroke-miterlimit:4;stroke-dasharray:none;stroke-opacity:1"
           id="text1049"><tspan
             x="0"
             y="0"
             id="tspan1047">W</tspan></text>
      </g>
      <g
         id="g1051"
         transform="scale(10)">
        <text
           transform="matrix(0.99995247,-0.00982844,-0.00974929,-0.99189985,162.57,178.028)"
           style="font-variant:normal;font-weight:bold;font-size:23.9529px;font-family:Helvetica;-inkscape-font-specification:Helvetica-Bold;writing-mode:lr-tb;fill:#231f20;fill-opacity:1;fill-rule:nonzero;stroke:#f9a72b;stroke-width:0.36;stroke-linecap:butt;stroke-linejoin:miter;stroke-miterlimit:4;stroke-dasharray:none;stroke-opacity:1"
           id="text1055"><tspan
             x="0"
             y="0"
             id="tspan1053">A</tspan></text>
      </g>
      <g
         id="g1057"
         transform="scale(10)">
        <text
           transform="matrix(0.99517897,-0.09887179,-0.09807559,-0.9871644,182.263,177.753)"
           style="font-variant:normal;font-weight:bold;font-size:23.951px;font-family:Helvetica;-inkscape-font-specification:Helvetica-Bold;writing-mode:lr-tb;fill:#231f20;fill-opacity:1;fill-rule:nonzero;stroke:#f9a72b;stroke-width:0.36;stroke-linecap:butt;stroke-linejoin:miter;stroke-miterlimit:4;stroke-dasharray:none;stroke-opacity:1"
           id="text1061"><tspan
             x="0"
             y="0"
             id="tspan1059">U</tspan></text>
      </g>
      <g
         id="g1063"
         transform="scale(10)">
        <text
           transform="matrix(0.98130237,-0.19403527,-0.19247248,-0.97339716,201.64,175.736)"
           style="font-variant:normal;font-weight:bold;font-size:23.9457px;font-family:Helvetica;-inkscape-font-specification:Helvetica-Bold;writing-mode:lr-tb;fill:#231f20;fill-opacity:1;fill-rule:nonzero;stroke:#f9a72b;stroke-width:0.36;stroke-linecap:butt;stroke-linejoin:miter;stroke-miterlimit:4;stroke-dasharray:none;stroke-opacity:1"
           id="text1067"><tspan
             x="0"
             y="0"
             id="tspan1065">K</tspan></text>
      </g>
      <g
         id="g1069"
         transform="scale(10)">
        <text
           transform="matrix(0.95680554,-0.29309014,-0.29072868,-0.94909779,220.582,171.87)"
           style="font-variant:normal;font-weight:bold;font-size:23.9365px;font-family:Helvetica;-inkscape-font-specification:Helvetica-Bold;writing-mode:lr-tb;fill:#231f20;fill-opacity:1;fill-rule:nonzero;stroke:#f9a72b;stroke-width:0.36;stroke-linecap:butt;stroke-linejoin:miter;stroke-miterlimit:4;stroke-dasharray:none;stroke-opacity:1"
           id="text1073"><tspan
             x="0"
             y="0"
             id="tspan1071">E</tspan></text>
      </g>
      <g
         id="g1075"
         transform="scale(10)">
        <text
           transform="matrix(0.91854697,-0.3985219,-0.39531186,-0.91114856,237.538,166.6)"
           style="font-variant:normal;font-weight:bold;font-size:23.9225px;font-family:Helvetica;-inkscape-font-specification:Helvetica-Bold;writing-mode:lr-tb;fill:#231f20;fill-opacity:1;fill-rule:nonzero;stroke:#f9a72b;stroke-width:0.36;stroke-linecap:butt;stroke-linejoin:miter;stroke-miterlimit:4;stroke-dasharray:none;stroke-opacity:1"
           id="text1079"><tspan
             x="0"
             y="0"
             id="tspan1077">E</tspan></text>
      </g>
      <g
         id="g1081"
         transform="scale(10)" />
      <path
         d="m 807.844,1170.61 h -83.789 v -33.62 h 76.914 v -27.5 h -76.914 v -40.72 h 87.656 v -28.46 H 691.723 v 158.34 h 116.121 v -28.04"
         style="fill:#ffffff;fill-opacity:1;fill-rule:nonzero;stroke:none"
         id="path1083" />
      <path
         d="m 807.844,1170.61 h -83.789 v -33.62 h 76.914 v -27.5 h -76.914 v -40.72 h 87.656 v -28.46 H 691.723 v 158.34 h 116.121 z"
         style="fill:none;stroke:#f3a00f;stroke-width:2.5;stroke-linecap:butt;stroke-linejoin:miter;stroke-miterlimit:10;stroke-dasharray:none;stroke-opacity:1"
         id="path1085" />
      <path
         d="m 858.762,1077.69 c 0.648,-5.44 2.051,-9.31 4.211,-11.6 3.812,-4.08 10.863,-6.12 21.156,-6.12 6.047,0 10.844,0.89 14.41,2.68 3.559,1.79 5.34,4.47 5.34,8.06 0,3.43 -1.434,6.05 -4.301,7.84 -2.871,1.79 -13.551,4.87 -32.031,9.24 -13.305,3.29 -22.68,7.41 -28.121,12.35 -5.442,4.88 -8.164,11.89 -8.164,21.06 0,10.81 4.254,20.1 12.754,27.88 8.507,7.76 20.472,11.65 35.906,11.65 14.641,0 26.57,-2.92 35.793,-8.76 9.219,-5.83 14.519,-15.91 15.879,-30.24 H 900.98 c -0.429,3.94 -1.542,7.06 -3.339,9.35 -3.375,4.15 -9.121,6.23 -17.239,6.23 -6.672,0 -11.433,-1.04 -14.269,-3.11 -2.84,-2.09 -4.254,-4.52 -4.254,-7.31 0,-3.51 1.508,-6.05 4.523,-7.63 3.016,-1.65 13.668,-4.47 31.965,-8.48 12.199,-2.87 21.336,-7.2 27.426,-13 6.016,-5.87 9.023,-13.21 9.023,-22.02 0,-11.6 -4.324,-21.08 -12.968,-28.42 -8.653,-7.33 -22.012,-11.01 -40.098,-11.01 -18.441,0 -32.055,3.89 -40.848,11.65 -8.789,7.78 -13.183,17.68 -13.183,29.71 h 31.043"
         style="fill:#ffffff;fill-opacity:1;fill-rule:nonzero;stroke:none"
         id="path1087" />
      <path
         d="m 858.762,1077.69 c 0.648,-5.44 2.051,-9.31 4.211,-11.6 3.812,-4.08 10.863,-6.12 21.156,-6.12 6.047,0 10.844,0.89 14.41,2.68 3.559,1.79 5.34,4.47 5.34,8.06 0,3.43 -1.434,6.05 -4.301,7.84 -2.871,1.79 -13.551,4.87 -32.031,9.24 -13.305,3.29 -22.68,7.41 -28.121,12.35 -5.442,4.88 -8.164,11.89 -8.164,21.06 0,10.81 4.254,20.1 12.754,27.88 8.507,7.76 20.472,11.65 35.906,11.65 14.641,0 26.57,-2.92 35.793,-8.76 9.219,-5.83 14.519,-15.91 15.879,-30.24 H 900.98 c -0.429,3.94 -1.542,7.06 -3.339,9.35 -3.375,4.15 -9.121,6.23 -17.239,6.23 -6.672,0 -11.433,-1.04 -14.269,-3.11 -2.84,-2.09 -4.254,-4.52 -4.254,-7.31 0,-3.51 1.508,-6.05 4.523,-7.63 3.016,-1.65 13.668,-4.47 31.965,-8.48 12.199,-2.87 21.336,-7.2 27.426,-13 6.016,-5.87 9.023,-13.21 9.023,-22.02 0,-11.6 -4.324,-21.08 -12.968,-28.42 -8.653,-7.33 -22.012,-11.01 -40.098,-11.01 -18.441,0 -32.055,3.89 -40.848,11.65 -8.789,7.78 -13.183,17.68 -13.183,29.71 z"
         style="fill:none;stroke:#f3a00f;stroke-width:2.5;stroke-linecap:butt;stroke-linejoin:miter;stroke-miterlimit:10;stroke-dasharray:none;stroke-opacity:1"
         id="path1089" />
      <path
         d="m 945.344,1134.52 v 21.8 h 16.328 v 32.66 h 30.293 v -32.66 h 19.015 v -21.8 h -19.015 v -61.88 c 0,-4.79 0.605,-7.78 1.828,-8.97 1.215,-1.17 4.941,-1.77 11.167,-1.77 0.93,0 1.92,0.02 2.96,0.05 1.03,0.04 2.05,0.1 3.06,0.16 v -22.88 l -14.503,-0.53 c -14.465,-0.5 -24.348,2 -29.649,7.52 -3.437,3.5 -5.156,8.91 -5.156,16.22 v 72.08 h -16.328"
         style="fill:#ffffff;fill-opacity:1;fill-rule:nonzero;stroke:none"
         id="path1091" />
      <path
         d="m 945.344,1134.52 v 21.8 h 16.328 v 32.66 h 30.293 v -32.66 h 19.015 v -21.8 h -19.015 v -61.88 c 0,-4.79 0.605,-7.78 1.828,-8.97 1.215,-1.17 4.941,-1.77 11.167,-1.77 0.93,0 1.92,0.02 2.96,0.05 1.03,0.04 2.05,0.1 3.06,0.16 v -22.88 l -14.503,-0.53 c -14.465,-0.5 -24.348,2 -29.649,7.52 -3.437,3.5 -5.156,8.91 -5.156,16.22 v 72.08 z"
         style="fill:none;stroke:#f3a00f;stroke-width:2.5;stroke-linecap:butt;stroke-linejoin:miter;stroke-miterlimit:10;stroke-dasharray:none;stroke-opacity:1"
         id="path1093" />
      <path
         d="m 1040.1,1072.43 h 32.55 v -32.12 h -32.55 v 32.12"
         style="fill:#ffffff;fill-opacity:1;fill-rule:nonzero;stroke:none"
         id="path1095" />
      <path
         d="m 1040.1,1072.43 h 32.55 v -32.12 h -32.55 z"
         style="fill:none;stroke:#f3a00f;stroke-width:2.5;stroke-linecap:butt;stroke-linejoin:miter;stroke-miterlimit:10;stroke-dasharray:none;stroke-opacity:1"
         id="path1097" />
    </g>
  </g>
</svg>
